<?xml version="1.0" encoding="UTF-8"?>
<svg xmlns="http://www.w3.org/2000/svg" xmlns:xlink="http://www.w3.org/1999/xlink" width="515pt" height="645pt" viewBox="0 0 515 645" version="1.1">
<g id="surface1">
<path style=" stroke:none;fill-rule:nonzero;fill:rgb(100%,100%,100%);fill-opacity:1;" d="M 208.230469 277.769531 L 208.230469 368.53125 L 307.769531 458.160156 L 508.070312 458.160156 L 508.070312 638.289062 L 208.601562 638.289062 L 208.230469 637.960938 L 8.75 458.339844 L 8.019531 457.691406 L 8.019531 188.621094 L 8.769531 187.949219 L 208.230469 8.351562 L 208.820312 7.820312 L 508.070312 7.820312 L 508.070312 188 L 308 188 Z M 208.230469 277.769531 "/>
<path style=" stroke:none;fill-rule:nonzero;fill:rgb(100%,100%,100%);fill-opacity:1;" d="M 515.890625 646.109375 L 205.621094 646.109375 L 203.019531 643.789062 L 2.820312 463.519531 L 0.210938 461.191406 L 0.210938 185.121094 L 3.550781 182.121094 L 205.820312 0 L 515.890625 0 L 515.890625 195.769531 L 311 195.769531 L 216.070312 281.25 L 216.070312 365.050781 L 310.789062 450.339844 L 515.910156 450.339844 Z M 211.601562 630.46875 L 500.25 630.46875 L 500.25 466 L 304.769531 466 L 200.410156 372 L 200.410156 274.289062 L 305 180.128906 L 500.269531 180.128906 L 500.269531 15.640625 L 211.820312 15.640625 L 15.820312 192.101562 L 15.820312 454.199219 Z M 211.601562 630.46875 "/>
<path style=" stroke:none;fill-rule:nonzero;fill:rgb(58.823532%,76.47059%,25.882354%);fill-opacity:1;" d="M 508.070312 12.558594 L 508.070312 183.621094 L 330.421875 76.421875 Z M 508.070312 12.558594 "/>
<path style=" stroke:none;fill-rule:nonzero;fill:rgb(73.725492%,82.352942%,34.901962%);fill-opacity:1;" d="M 496.71875 8.339844 L 321.78125 71.21875 L 217.578125 8.339844 Z M 496.71875 8.339844 "/>
<path style=" stroke:none;fill-rule:nonzero;fill:rgb(47.058824%,66.274512%,44.705883%);fill-opacity:1;" d="M 304.539062 191.578125 L 211.359375 275.480469 L 17.078125 189.058594 L 256.011719 103.179688 Z M 304.539062 191.578125 "/>
<path style=" stroke:none;fill-rule:nonzero;fill:rgb(58.823532%,76.47059%,25.882354%);fill-opacity:1;" d="M 500.960938 188.46875 L 311.738281 188.46875 L 263.429688 100.5 L 320.921875 79.839844 Z M 500.960938 188.46875 "/>
<path style=" stroke:none;fill-rule:nonzero;fill:rgb(32.549021%,52.941179%,58.039218%);fill-opacity:1;" d="M 499.140625 458.679688 L 319.929688 566.820312 L 264.449219 546.878906 L 312.871094 458.679688 Z M 499.140625 458.679688 "/>
<path style=" stroke:none;fill-rule:nonzero;fill:rgb(21.960784%,39.215687%,63.921571%);fill-opacity:1;" d="M 508.070312 462.429688 L 508.070312 634.449219 L 329.410156 570.238281 Z M 508.070312 462.429688 "/>
<path style=" stroke:none;fill-rule:nonzero;fill:rgb(12.941177%,30.980393%,56.078434%);fill-opacity:1;" d="M 497.089844 638.808594 L 215.78125 638.808594 L 320.808594 575.429688 Z M 497.089844 638.808594 "/>
<path style=" stroke:none;fill-rule:nonzero;fill:rgb(21.960784%,39.215687%,63.921571%);fill-opacity:1;" d="M 253.191406 551.140625 L 207.25 634.800781 L 205.398438 635.921875 L 16.921875 466.199219 Z M 253.191406 551.140625 "/>
<path style=" stroke:none;fill-rule:nonzero;fill:rgb(32.549021%,52.941179%,58.039218%);fill-opacity:1;" d="M 305.210938 456.371094 L 257 544.199219 L 16.628906 457.800781 L 210.851562 371.421875 Z M 305.210938 456.371094 "/>
<path style=" stroke:none;fill-rule:nonzero;fill:rgb(43.529412%,62.7451%,49.803922%);fill-opacity:1;" d="M 208.230469 282.648438 L 208.230469 364.011719 L 8.019531 453.050781 L 8.019531 193.609375 Z M 208.230469 282.648438 "/>
<path style=" stroke:none;fill-rule:nonzero;fill:rgb(73.725492%,82.352942%,34.901962%);fill-opacity:1;" d="M 252.199219 96.238281 L 17.511719 180.589844 L 205.550781 11.289062 Z M 252.199219 96.238281 "/>
<path style=" stroke:none;fill-rule:nonzero;fill:rgb(66.666669%,79.215688%,28.235295%);fill-opacity:1;" d="M 312.300781 74.621094 L 259.621094 93.558594 L 217.988281 17.71875 Z M 312.300781 74.621094 "/>
<path style=" stroke:none;fill-rule:nonzero;fill:rgb(21.960784%,39.215687%,63.921571%);fill-opacity:1;" d="M 311.308594 572.011719 L 220.589844 626.75 L 260.640625 553.820312 Z M 311.308594 572.011719 "/>
</g>
</svg>
